<svg width="48" height="48" viewBox="0 0 48 48" fill="none" xmlns="http://www.w3.org/2000/svg">
<circle cx="24" cy="24" r="24" fill="white"/>
<circle cx="24" cy="24" r="23.5" stroke="black" stroke-opacity="0.1"/>
<g clip-path="url(#clip0_1_205)">
<path d="M43.9999 24C43.9999 35.0458 35.0455 44 24 44C12.9543 44 4 35.0459 4 24C4 12.9544 12.9543 4 24 4C35.0457 4 43.9999 12.9544 43.9999 24Z" fill="white"/>
<path d="M23.8329 11.1104C24.5369 11.5141 25.2838 12.0337 25.8523 12.5843L25.6289 12.8076C24.5071 12.689 23.3255 12.8371 22.2621 12.8534C22.1435 12.7343 21.9045 12.5553 22.1271 12.4058L23.8329 11.1104ZM43.6694 24.9749C43.6843 25.4787 43.7319 25.9113 43.5344 26.4269C41.4848 27.0068 40.1386 24.8479 38.15 25.1735L38.3748 26.2926C40.2146 26.3528 41.3637 28.108 43.2644 28.0325C42.9944 28.5691 43.3848 29.9827 42.1885 29.4177C40.9467 29.1208 40.0489 28.0325 38.6881 28.0325C38.5239 28.3324 38.6279 28.7477 38.5991 29.1025C40.0346 29.3266 41.0671 30.5336 42.5022 30.7565C42.3672 31.2472 42.2334 31.7967 41.8292 32.0959C40.6616 31.8132 39.7497 30.77 38.5067 30.7999L38.2854 31.8274C39.4667 31.8577 40.2299 32.8974 41.2915 33.2095C41.3207 33.6429 40.9312 34.0302 40.707 34.4171C39.7645 34.1355 39.0458 33.33 37.969 33.3894C37.954 32.9858 38.1949 32.5275 38.104 32.0959C36.8946 32.4538 36.0836 31.3358 35.1873 30.6652C35.1615 28.4705 32.8392 27.0308 32.7166 24.9749C32.6931 24.565 32.7559 24.1274 32.9436 23.6571C33.7068 21.9014 33.4671 19.6219 32.6302 17.985C32.3759 17.5542 31.9253 17.2142 31.5054 16.9609C32.1197 18.2563 32.8684 19.7869 32.4947 21.3791C32.4515 22.6087 31.7222 23.7896 31.7139 24.9749C31.7111 25.3975 31.8017 25.8201 32.046 26.2468C33.019 27.9902 34.7695 29.6405 34.1113 31.827C33.9303 32.4986 33.3914 33.0179 33.2569 33.7014C34.3952 34.6393 35.4714 35.6962 36.9817 35.7557C37.5199 35.4138 37.2209 33.8974 38.328 34.5968L39.9444 35.4012C39.8266 35.8317 39.4644 36.2175 39.1363 36.514C38.523 36.217 37.9247 35.861 37.16 35.89C36.9345 36.128 36.7405 36.3952 36.7577 36.7367C37.2958 36.8249 37.7895 37.0508 38.239 37.3639C38.0303 37.8111 37.6235 38.0914 37.2496 38.4338L35.9957 37.9878C35.7863 38.2859 35.3515 38.5991 35.5041 38.9262C35.787 39.0467 36.1008 39.2096 36.3091 39.4185C35.7557 40.0136 35.0542 40.3965 34.3791 40.8005C33.7977 38.9098 31.882 37.5842 32.0464 35.3977L31.9574 35.3093C31.5071 35.813 31.6576 36.6185 31.6866 37.2721C32.2255 38.6416 33.511 39.6994 33.706 41.2012C33.4809 41.5877 32.9734 41.6647 32.5842 41.8284C32.6293 39.1207 28.5011 37.067 31.1485 34.3282C32.0314 32.987 33.5106 31.7072 32.9865 29.8607C32.4484 28.078 30.545 26.9734 30.5618 24.9749L30.5648 24.819C30.9983 22.7348 32.3152 20.5172 31.2379 18.3001C30.9376 17.4083 30.2668 16.3949 29.3543 16.0222C30.7147 17.5714 31.254 20.099 30.4757 22.1835C30.0835 23.0127 29.5435 24.0005 29.4893 24.9753H29.4861C29.4572 25.4843 29.5617 25.9905 29.8918 26.4705C30.9247 28.1379 32.7188 29.9695 31.6867 32.1425C30.5201 33.8829 28.4858 35.6534 29.6219 37.9458C30.4446 39.3149 31.7171 40.6811 31.3738 42.3642L30.0276 42.8102C30.9251 39.6709 26.5268 37.8264 28.368 34.686C29.5048 33.0044 31.5379 31.4266 30.387 29.1948C29.6989 27.8119 28.2772 26.9934 28.3221 25.2653L28.3711 24.9751C28.8343 22.5241 30.707 20.2041 29.3976 17.585C29.0535 16.8116 28.3658 16.0231 27.6026 15.5763L27.5565 15.6222C29.0831 17.0955 29.5475 19.5196 28.7245 21.4682C28.3404 22.6115 27.4976 23.7504 27.3263 24.9755C27.2448 25.5532 27.3135 26.1518 27.649 26.7825C28.6212 28.3141 30.3261 29.9389 29.2622 31.9191C28.1418 33.5547 26.2714 35.1461 27.0185 37.273C27.8414 39.1339 29.5598 40.9066 28.632 43.2141L27.2428 43.5262C28.3493 41.2775 26.6901 39.0462 25.7182 37.0959C24.5359 34.2979 28.2585 32.9581 28.3182 30.4C28.3041 28.7489 26.5398 27.8114 26.1669 26.2935C25.4033 25.6526 24.6118 26.5484 23.699 26.3821C23.025 26.5168 21.9899 25.4591 21.5876 26.6056C21.1085 28.2864 18.9258 29.5221 19.8851 31.5157C20.7979 33.2874 22.9945 34.5829 22.2607 36.8756C21.6037 39.0171 19.4334 41.0562 20.7794 43.5262C20.2265 43.348 19.194 43.6891 19.2089 42.8103C18.3566 39.8191 21.991 38.0765 20.8685 35.087C20.3461 33.2558 17.9659 32.2441 18.4899 30.0417C18.8773 28.2288 20.9221 26.9613 20.6353 24.9754C20.612 24.8091 20.5709 24.6389 20.5121 24.4615C19.7489 22.3185 18.1918 20.175 19.1199 17.6738C19.3747 16.9595 19.8836 16.3494 20.3309 15.7109C18.8499 16.4994 18.1028 18.1667 18.1334 19.8629C18.0689 21.7074 19.4384 23.2875 19.6333 24.9754C19.7099 25.6566 19.5978 26.3541 19.1199 27.094C18.1484 28.4056 16.8778 29.7885 17.4603 31.5155C18.0142 33.2574 20.1979 34.3126 20.0633 36.3374C20.0485 38.7324 17.2512 40.2237 18.044 42.9022L16.6517 42.4528C16.099 40.0726 18.6414 38.8549 18.6706 36.6526C19.0304 34.12 15.7838 33.1803 15.9786 30.7116C15.9646 28.8359 17.6242 27.6479 18.3572 26.0701C18.4829 25.6862 18.5247 25.3233 18.5079 24.9755C18.4181 23.231 16.8381 21.8672 17.1003 19.9058C17.1885 18.4623 17.6822 17.1971 18.6249 16.1114C17.3242 16.6313 16.7869 18.1209 16.4276 19.3712C15.8041 21.3761 17.2925 23.1794 17.4417 24.9757C17.5079 25.7688 17.3131 26.5575 16.5629 27.3637C15.4853 28.6272 14.3925 30.2213 15.1705 31.9193C15.9943 33.7929 18.5827 35.2512 17.46 37.5881C16.8475 39.0617 15.3809 40.1771 15.4412 41.9177C15.0526 41.754 14.6494 41.5908 14.3192 41.2939C14.3192 39.0769 17.4891 37.6922 15.9787 35.3557C15.845 35.8167 15.8162 36.4432 15.7114 36.964C15.1873 38.3189 14.0658 39.4035 13.6462 40.8041C12.9444 40.5347 12.2106 39.9686 11.6269 39.3734L12.4354 38.8811C12.3456 38.5829 12.1067 38.3302 11.8977 38.0772C11.3726 38.0037 11.0279 38.3465 10.595 38.4808C10.2211 38.1528 9.86016 37.855 9.56205 37.4532C9.83045 36.6927 11.9276 37.3216 10.8652 36.0712C10.1479 35.625 9.42799 36.2623 8.7999 36.5599L7.94847 35.4899C8.68144 35.0439 9.41253 34.4174 10.3242 34.5971C10.5489 34.9996 10.5645 35.5916 10.9973 35.8017C12.5383 35.7719 13.6302 34.6123 14.8115 33.7042C13.9881 32.4854 13.3179 30.8027 14.0493 29.3287C14.6353 27.8516 16.1622 26.6076 16.2314 24.9747C16.247 24.6031 16.1888 24.212 16.0254 23.7912C15.2181 21.7223 14.9331 18.9262 16.4741 17.095C15.6363 17.3189 15.1422 18.3579 14.8576 19.1468C13.9312 21.167 15.1028 23.0385 15.1433 24.9746C15.1488 25.3228 15.1205 25.6718 15.0356 26.0234C14.2425 27.6157 12.9576 29.0127 12.7489 30.845C11.8361 31.4242 11.0868 32.4372 9.78621 32.0954C9.74049 32.4373 9.84524 32.9585 9.96451 33.3458C8.93316 33.3027 8.2299 34.059 7.36152 34.4162C6.89896 34.2685 6.77862 33.6736 6.59951 33.2573C7.61593 32.9157 8.34917 31.9019 9.5162 31.918C9.65147 31.5441 9.44036 31.2015 9.38079 30.8447C7.9291 30.2036 5.62799 34.0136 5.4345 30.7104C6.88511 30.621 7.81212 29.2813 9.24875 29.1478L9.29164 28.0779C7.66125 27.914 6.61242 29.5815 4.98269 29.4171L4.62327 27.9893C6.50848 28.1065 7.63167 26.4257 9.42705 26.3353C9.66559 26.0231 9.69437 25.5617 9.74035 25.1306C7.78065 24.8765 6.43586 27.0372 4.35595 26.381C4.35595 26.381 4.28428 25.4817 4.24542 24.9747H4.24824C4.23413 24.7765 4.22068 24.6383 4.22068 24.6383C6.07536 25.3542 7.70495 24.0289 9.29164 23.3448C9.69517 23.2246 10.3245 23.4329 10.5055 22.9869C10.4897 22.6446 11.1173 22.2443 10.5949 22.0054C8.27522 21.6922 6.73424 24.4757 4.35568 23.21L4.17725 22.8522C4.67208 16.1264 8.48472 9.62395 14.8115 6.42408C17.3738 4.96722 20.5572 4.22461 23.7675 4.19826C27.6419 4.16629 31.5567 5.17739 34.469 7.22836C37.2971 8.95425 40.0022 11.7985 41.4703 14.6859C42.8744 17.2157 43.5207 20.0543 43.7136 23.0764C41.2599 24.9209 39.6138 21.3386 37.1151 22.1403C37.2497 22.528 37.3242 22.9291 37.6098 23.2565C39.8243 23.2409 41.3493 25.5478 43.6674 24.6387L43.6694 24.9749ZM15.4838 16.6915C13.9279 15.6792 11.9553 16.6324 10.5052 17.1837C10.3706 15.8288 9.81754 14.5944 8.66436 13.7015C8.55249 13.6462 8.39785 13.5296 8.25854 13.5211C8.17518 13.5159 8.09584 13.5493 8.03426 13.6554C8.55692 16.8544 6.46666 19.0867 4.98538 21.5134C5.4786 21.9145 6.27101 21.8546 6.86925 21.7367C8.43953 21.112 9.93533 20.0246 11.8051 20.3973C12.358 19.4598 13.287 18.5517 14.0488 17.8076C14.5142 17.407 15.1535 17.1525 15.4838 16.6915ZM20.2414 18.7006C20.2116 18.8932 20.2564 19.2367 20.5549 19.1039C21.0193 18.4641 21.8416 18.9703 22.3499 19.0154V18.8353C22.071 18.3996 21.4972 18.1807 20.9146 18.2025C20.7801 18.2072 20.6435 18.2268 20.512 18.2571C20.317 18.3002 20.1813 18.4777 20.2414 18.7006ZM27.5558 16.7834C27.1382 15.8605 26.1808 15.487 25.312 15.2638C24.8862 15.2116 24.4442 15.1763 24.0058 15.1722C23.9236 15.1714 23.8416 15.1703 23.7599 15.1722C22.5337 15.1968 21.3621 15.51 20.6463 16.5141C20.5436 16.7976 20.0919 17.1957 20.5113 17.4498C21.4538 17.3898 22.5292 17.2722 23.1575 18.0769C23.1575 18.792 23.6215 19.7433 22.844 20.0856C22.1998 19.4922 21.4368 20.3382 20.7359 19.8619C20.4063 19.6682 20.1977 19.8943 20.0627 20.177C19.8679 22.0219 20.8389 24.0581 22.5737 25.0845C23.2769 25.3369 24.222 25.5769 24.9558 25.2189C26.7208 24.4012 27.4519 22.5272 27.7805 20.8007C27.7364 20.4721 27.7521 19.8318 27.2888 19.8163C26.7656 20.1456 26.0025 19.951 25.4479 19.8163C25.1201 19.9216 25.1051 20.3988 24.7319 20.4892L24.5045 20.3088C24.3098 19.4915 24.1898 18.3303 24.9534 17.7648C25.8067 17.4225 26.8089 17.2729 27.6914 17.5415C27.8561 17.259 27.6018 17.0365 27.5558 16.7834ZM26.6553 18.2508C26.596 18.2523 26.5383 18.2552 26.48 18.2571C26.1665 18.4651 25.2531 18.3156 25.5828 19.0154C26.1516 18.5678 26.9444 18.8815 27.5128 19.1039C27.723 19.0001 27.6774 18.7917 27.6912 18.612C27.5088 18.2742 27.0727 18.2425 26.6553 18.2508ZM33.168 11.9587C32.0608 11.9002 31.1337 12.5255 30.1163 12.8084C30.0277 11.9472 30.6854 11.0376 30.8354 10.173C29.1905 10.2783 27.8877 11.2633 26.5269 12.0502C26.212 11.2931 25.8961 10.5322 25.5834 9.77231L27.3783 8.07532L27.4243 7.85177L24.9998 7.71746C24.5821 6.98943 24.4175 6.11251 23.9239 5.44281C23.52 6.20174 23.2486 7.00495 22.8451 7.76321L20.4234 7.89793V8.07532L22.2614 9.72642C22.0367 10.5751 21.8279 11.4973 21.2749 12.1387C20.198 11.497 19.1364 10.7985 17.9557 10.3529C17.6715 10.2617 17.2665 10.1133 17.0123 10.3072C17.3857 11.1259 17.9086 12.0066 17.8207 12.9002C17.3268 12.8098 16.9386 12.4947 16.4745 12.3623C15.9196 12.2116 15.2611 11.9173 14.7227 12.0963C15.6204 13.3457 16.3531 14.6532 16.6066 16.1568C19.5846 14.7268 23.0576 13.9403 26.6626 14.5514C28.3524 14.819 29.9063 15.5038 31.4173 16.068C31.4763 14.4914 32.4785 13.2245 33.168 11.9587ZM38.282 20.5318C39.8066 20.9332 41.336 22.5858 42.9504 21.5136C41.5444 19.1924 39.4517 17.0488 40.0337 14.0134C40.0946 13.8062 39.96 13.5964 39.7664 13.567C38.8543 13.9378 38.1479 14.8318 37.787 15.7106C37.6386 16.2304 37.5507 16.7829 37.3416 17.2728C36.2489 16.707 35.0829 16.1589 33.7517 16.2914C33.2717 16.3509 32.5835 16.3822 32.4949 16.8725C34.0056 17.6757 35.2479 19.0162 36.1737 20.4436C36.8184 20.339 37.6089 20.4284 38.282 20.5318ZM22.3067 22.6296L22.3497 22.8986C22.9342 23.286 23.114 23.9426 23.9232 23.8829C24.6409 23.9254 25.1793 23.2565 25.5368 22.7211C24.5657 22.5877 23.384 22.7941 22.3067 22.6296ZM23.1148 21.4249C23.144 21.5441 23.0407 21.7227 23.2039 21.7829C23.6825 21.6795 24.5497 22.0363 24.817 21.4708C24.6304 21.2627 24.3257 21.1683 24.0059 21.1683C23.6863 21.1683 23.3546 21.261 23.1148 21.4249Z" fill="#007042"/>
<path opacity="0.99" d="M22.3079 20.9085H25.5877V22.2491H22.3079V20.9085Z" fill="white"/>
<path d="M22.9136 21.6253C23.3375 21.7251 23.4424 21.8746 23.7773 21.9164C24.1334 21.9101 24.082 21.8381 24.7031 21.6249C24.7439 21.6106 24.7999 21.5211 24.7304 21.4524C24.3448 21.0716 24.0783 21.3437 23.8365 21.3509C23.5158 21.3544 23.215 21.0777 22.9017 21.4373C22.8483 21.5104 22.8205 21.5821 22.9136 21.6253Z" fill="#007042"/>
</g>
<defs>
<clipPath id="clip0_1_205">
<rect width="40" height="40" fill="white" transform="translate(4 4)"/>
</clipPath>
</defs>
</svg>
