<svg width="80" height="29" viewBox="0 0 80 29" fill="none" xmlns="http://www.w3.org/2000/svg">
<g clip-path="url(#clip0_1_174)">
<path d="M40.1792 -5.81844e-07C32.0103 -0.140375 25.2935 6.3615 25.2167 14.3947C25.1464 22.2812 31.684 28.9298 39.5651 28.9936C47.8171 29.0574 54.3804 22.6832 54.4443 14.5351C54.5083 6.65501 48.0538 0.133993 40.1792 -5.81844e-07ZM39.8721 21.2922C36.1811 21.3305 33.0274 18.2933 32.9826 14.6627C32.9378 10.8854 35.97 7.80352 39.7698 7.76524C43.5823 7.72695 46.6976 10.6939 46.7424 14.4139C46.7872 18.1976 43.7295 21.2603 39.8721 21.2986V21.2922Z" fill="#1B70E1"/>
<path d="M73.2768 15.8176C72.6755 15.1476 72.5603 14.299 72.9889 13.6354C73.1681 13.3547 73.4047 13.0995 73.635 12.8506C75.407 10.8917 77.1917 8.94566 78.9445 6.96766C80.8764 4.79186 80.0575 1.44841 77.3516 0.370078C75.7908 -0.255225 73.8845 0.178659 72.6755 1.47393C71.0507 3.20946 69.4578 4.97052 67.8266 6.69967C67.123 7.44621 66.2658 7.4143 65.5429 6.69967C65.383 6.54015 65.2295 6.37426 65.0759 6.20198C63.6494 4.64511 62.2165 3.08823 60.79 1.53135C59.9456 0.612542 58.9029 0.108472 57.6363 0.102091C55.9603 0.0957106 54.4314 1.0209 53.7917 2.52673C53.0945 4.17932 53.2928 5.74896 54.5146 7.10803C56.293 9.08603 58.0969 11.0449 59.8816 13.0165C60.9499 14.1905 60.9371 14.9179 59.8624 16.0984C58.0457 18.0955 56.2162 20.0799 54.4506 22.1153C52.9665 23.8189 53.1329 26.352 54.7449 27.8387C56.3569 29.3254 58.9733 29.2999 60.5725 27.7685C60.8859 27.4686 61.1738 27.1432 61.4681 26.8242C62.7986 25.3822 64.1164 23.9274 65.4598 22.4981C66.2466 21.6623 67.1102 21.675 67.9226 22.4854C68.0569 22.6194 68.1848 22.7597 68.3128 22.9001C69.8033 24.5016 71.2554 26.1415 72.797 27.6983C74.7801 29.7019 78.0809 29.2552 79.4498 26.8497C80.3518 25.2673 80.1343 23.3914 78.8293 21.9303C76.9934 19.8757 75.1255 17.853 73.2768 15.8112V15.8176Z" fill="#1B70E1"/>
<path d="M25.3446 6.8209C26.1378 5.82552 26.464 4.72167 26.2338 3.49021C25.9139 1.77382 24.852 0.650826 23.1696 0.216942C21.4744 -0.216941 19.9712 0.216942 18.8261 1.57602C17.31 3.38174 15.8451 5.23212 14.3547 7.05699C13.5359 8.05875 12.7042 8.05237 11.879 7.04422C10.4525 5.28955 9.0516 3.50297 7.58671 1.7802C7.13252 1.25061 6.54401 0.772058 5.9235 0.465787C4.15155 -0.395599 2.04696 0.178658 0.850738 1.7483C-0.294312 3.25413 -0.268724 5.32145 0.831548 6.73795C3.35194 9.96656 5.84034 13.2143 8.34794 16.4493C8.69337 16.8959 8.87249 17.3872 8.85969 17.9615C8.83411 19.0909 8.8533 20.2202 8.8533 21.356C8.8533 22.5045 8.82771 23.6594 8.86609 24.8079C8.87889 25.3056 8.94925 25.8352 9.12197 26.301C9.80004 28.1705 11.7895 29.2297 13.8365 28.8724C15.7428 28.5342 17.1885 26.8497 17.2077 24.8909C17.2269 22.6513 17.2333 20.4053 17.2077 18.1593C17.2077 17.4638 17.4124 16.8832 17.841 16.3408C20.3422 13.176 22.8178 9.9857 25.3318 6.82728L25.3446 6.8209Z" fill="#1B70E1"/>
</g>
<defs>
<clipPath id="clip0_1_174">
<rect width="80" height="29" fill="white"/>
</clipPath>
</defs>
</svg>
