<svg width="32" height="32" viewBox="0 0 32 32" fill="none" xmlns="http://www.w3.org/2000/svg">
<rect width="32" height="32" rx="16" fill="white"/>
<rect x="0.5" y="0.5" width="31" height="31" rx="15.5" stroke="black" stroke-opacity="0.1"/>
<g clip-path="url(#clip0_1_334)">
<path d="M16 7.66669C12.775 7.66669 10.1666 10.275 10.1666 13.5C10.1666 14.95 10.5833 16.3084 11.3416 17.5334C12.1333 18.8167 13.175 19.9167 13.975 21.2C14.3666 21.825 14.65 22.4084 14.95 23.0834C15.1666 23.5417 15.3416 24.3334 16 24.3334C16.6583 24.3334 16.8333 23.5417 17.0416 23.0834C17.35 22.4084 17.625 21.825 18.0166 21.2C18.8166 19.925 19.8583 18.825 20.65 17.5334C21.4166 16.3084 21.8333 14.95 21.8333 13.5C21.8333 10.275 19.225 7.66669 16 7.66669ZM16 15.7917C14.85 15.7917 13.9166 14.8584 13.9166 13.7084C13.9166 12.5584 14.85 11.625 16 11.625C17.15 11.625 18.0833 12.5584 18.0833 13.7084C18.0833 14.8584 17.15 15.7917 16 15.7917Z" fill="black" fill-opacity="0.5"/>
</g>
<defs>
<clipPath id="clip0_1_334">
<rect width="20" height="20" fill="white" transform="translate(6 6)"/>
</clipPath>
</defs>
</svg>
