<svg width="32" height="32" viewBox="0 0 32 32" fill="none" xmlns="http://www.w3.org/2000/svg">
<circle cx="16" cy="16" r="16" fill="white"/>
<circle cx="16" cy="16" r="15.5" stroke="black" stroke-opacity="0.1"/>
<g clip-path="url(#clip0_1_348)">
<path d="M21.8333 11H21V6.83331H11V11H10.1667C9.25 11 8.5 11.75 8.5 12.6666V22.6666C8.5 23.5833 9.25 24.3333 10.1667 24.3333H21.8333C22.75 24.3333 23.5 23.5833 23.5 22.6666V12.6666C23.5 11.75 22.75 11 21.8333 11ZM12.6667 8.49998H19.3333V11H12.6667V8.49998ZM16 21.8333C13.7 21.8333 11.8333 19.9666 11.8333 17.6666C11.8333 15.3666 13.7 13.5 16 13.5C18.3 13.5 20.1667 15.3666 20.1667 17.6666C20.1667 19.9666 18.3 21.8333 16 21.8333Z" fill="black" fill-opacity="0.5"/>
<path d="M16.4166 15.5833H15.5833V17.8416L16.9499 19.2083L17.5416 18.6166L16.4166 17.4916V15.5833Z" fill="black" fill-opacity="0.5"/>
</g>
<defs>
<clipPath id="clip0_1_348">
<rect width="20" height="20" fill="white" transform="translate(6 6)"/>
</clipPath>
</defs>
</svg>
